<?xml version="1.0" encoding="UTF-8" standalone="no"?>
<!-- Created with Inkscape (http://www.inkscape.org/) -->

<svg
   xmlns:dc="http://purl.org/dc/elements/1.1/"
   xmlns:cc="http://creativecommons.org/ns#"
   xmlns:rdf="http://www.w3.org/1999/02/22-rdf-syntax-ns#"
   xmlns:svg="http://www.w3.org/2000/svg"
   xmlns="http://www.w3.org/2000/svg"
   xmlns:sodipodi="http://sodipodi.sourceforge.net/DTD/sodipodi-0.dtd"
   xmlns:inkscape="http://www.inkscape.org/namespaces/inkscape"
   width="83.357002mm"
   height="24.674999mm"
   viewBox="0 0 83.357002 24.674999"
   version="1.1"
   id="svg4131"
   inkscape:version="0.92.4 (5da689c313, 2019-01-14)"
   sodipodi:docname="art.svg">
  <defs
     id="defs4125" />
  <sodipodi:namedview
     id="base"
     pagecolor="#ffffff"
     bordercolor="#666666"
     borderopacity="1.0"
     inkscape:pageopacity="0.0"
     inkscape:pageshadow="2"
     inkscape:zoom="0.35"
     inkscape:cx="400"
     inkscape:cy="560"
     inkscape:document-units="mm"
     inkscape:current-layer="layer1"
     showgrid="false"
     inkscape:window-width="1366"
     inkscape:window-height="705"
     inkscape:window-x="-8"
     inkscape:window-y="-8"
     inkscape:window-maximized="1" />
  <metadata
     id="metadata4128">
    <rdf:RDF>
      <cc:Work
         rdf:about="">
        <dc:format>image/svg+xml</dc:format>
        <dc:type
           rdf:resource="http://purl.org/dc/dcmitype/StillImage" />
        <dc:title></dc:title>
      </cc:Work>
    </rdf:RDF>
  </metadata>
  <g
     inkscape:label="Capa 1"
     inkscape:groupmode="layer"
     id="layer1"
     transform="translate(0,-272.325)">
    <g
       transform="matrix(0.35277777,0,0,-0.35277777,-251.59491,725.97733)"
       id="g201">
      <g
         id="g167"
         transform="translate(886.98975,1285.6148)">
        <path
           d="m 0,0 c -3.278,0.82 -6.753,0.083 -9.418,-1.997 -2.664,-2.081 -4.222,-5.272 -4.222,-8.653 v -47.942 c 0,-3.395 1.565,-6.6 4.241,-8.689 2.675,-2.089 6.165,-2.829 9.458,-2.006 15.745,3.937 41.086,10.272 54.107,13.528 4.888,1.221 8.315,5.612 8.315,10.649 v 20.919 c 0,5.037 -3.427,9.428 -8.315,10.649 C 41.128,-10.282 15.741,-3.935 0,0"
           style="fill:#e6e2e7;fill-opacity:1;fill-rule:evenodd;stroke:none"
           id="path165"
           inkscape:connector-curvature="0" />
      </g>
      <g
         id="g171"
         transform="translate(934.92335,1273.6319)">
        <path
           d="m 0,0 6.232,-1.559 c 4.888,-1.221 8.316,-5.612 8.316,-10.649 v -20.919 c 0,-5.037 -3.428,-9.428 -8.316,-10.649 -13.021,-3.256 -38.362,-9.591 -54.107,-13.528 -2.581,-0.645 -5.283,-0.33 -7.619,0.842 C -35.211,-51.823 -14.84,-21.32 0,0"
           style="fill:#f98e2b;fill-opacity:1;fill-rule:evenodd;stroke:none"
           id="path169"
           inkscape:connector-curvature="0" />
      </g>
      <g
         id="g175"
         transform="translate(854.81005,1217.4342)">
        <path
           d="m 0,0 c 3.337,-1.058 6.978,-0.461 9.801,1.607 2.824,2.067 4.493,5.357 4.493,8.857 v 46.133 c 0,3.5 -1.669,6.79 -4.493,8.857 C 6.978,67.522 3.337,68.119 0,67.061 -16.053,61.974 -41.512,53.906 -54.166,49.897 c -4.561,-1.446 -7.661,-5.68 -7.661,-10.465 V 27.629 c 0,-4.785 3.1,-9.019 7.661,-10.465 C -41.512,13.155 -16.053,5.087 0,0"
           style="fill:#e6e2e7;fill-opacity:1;fill-rule:evenodd;stroke:none"
           id="path173"
           inkscape:connector-curvature="0" />
      </g>
      <g
         id="g179"
         transform="translate(808.65875,1269.8697)">
        <path
           d="m 0,0 c 14.769,-19.681 33.617,-37.123 56.065,-50.745 -0.037,-0.027 -0.075,-0.056 -0.113,-0.084 -2.823,-2.067 -6.464,-2.665 -9.801,-1.607 -16.052,5.087 -41.511,13.155 -54.166,17.165 -4.56,1.445 -7.661,5.679 -7.661,10.464 v 11.803 c 0,4.785 3.101,9.019 7.661,10.465 z"
           style="fill:#ea002a;fill-opacity:1;fill-rule:evenodd;stroke:none"
           id="path177"
           inkscape:connector-curvature="0" />
      </g>
      <g
         id="g183"
         transform="translate(726.29255,1277.2608)">
        <path
           d="m 0,0 c -3.223,0.639 -6.562,-0.2 -9.101,-2.285 -2.539,-2.085 -4.009,-5.198 -4.009,-8.483 v -31.057 c 0,-3.285 1.47,-6.398 4.009,-8.483 2.539,-2.085 5.878,-2.924 9.101,-2.285 15.394,3.049 40.505,8.023 53.764,10.65 5.139,1.018 8.843,5.528 8.843,10.768 v 9.757 c 0,5.24 -3.704,9.75 -8.843,10.768 C 40.505,-8.023 15.394,-3.049 0,0"
           style="fill:#e6e2e7;fill-opacity:1;fill-rule:evenodd;stroke:none"
           id="path181"
           inkscape:connector-curvature="0" />
      </g>
      <g
         id="g187"
         transform="translate(718.87945,1225.8111)">
        <path
           d="m 0,0 c -0.592,0.325 -1.157,0.706 -1.687,1.142 -2.54,2.085 -4.01,5.198 -4.01,8.483 v 31.057 c 0,3.285 1.47,6.398 4.01,8.483 2.538,2.085 5.877,2.924 9.1,2.285 l 41.05,-8.131 C 30.819,31.393 14.431,16.891 0,0"
           style="fill:#582679;fill-opacity:1;fill-rule:evenodd;stroke:none"
           id="path185"
           inkscape:connector-curvature="0" />
      </g>
    </g>
  </g>
</svg>
