<?xml version="1.0" encoding="utf-8"?>
<!-- Generator: Adobe Illustrator 16.0.3, SVG Export Plug-In . SVG Version: 6.00 Build 0)  -->
<!DOCTYPE svg PUBLIC "-//W3C//DTD SVG 1.1//EN" "http://www.w3.org/Graphics/SVG/1.1/DTD/svg11.dtd">
<svg version="1.1" id="Capa_1" xmlns="http://www.w3.org/2000/svg" xmlns:xlink="http://www.w3.org/1999/xlink" x="0px" y="0px"
	 width="141.73px" height="42.52px" viewBox="0 0 141.73 42.52" enable-background="new 0 0 141.73 42.52" xml:space="preserve">
<path fill="#55565A" d="M67.678,31.274c-0.398,0.23-0.972,0.346-1.723,0.346c-0.565,0-1.071-0.121-1.519-0.359
	c-0.448-0.24-0.797-0.579-1.048-1.019c-0.251-0.438-0.376-0.931-0.376-1.477c0-0.955,0.29-1.717,0.867-2.283
	c0.579-0.567,1.357-0.852,2.339-0.852c0.677,0,1.164,0.09,1.461,0.269v1.494c-0.372-0.274-0.782-0.413-1.232-0.413
	c-0.516,0-0.92,0.152-1.21,0.458c-0.29,0.304-0.435,0.708-0.435,1.21s0.142,0.897,0.427,1.188c0.284,0.289,0.672,0.435,1.162,0.435
	c0.438,0,0.868-0.138,1.288-0.413V31.274z M98.889,25.771h1.281v1.3h-1.281v2.309c0,0.594,0.236,0.892,0.707,0.892
	c0.188,0,0.379-0.054,0.574-0.162v1.305c-0.26,0.138-0.652,0.207-1.176,0.207c-1.242,0-1.861-0.646-1.861-1.935V27.07h-0.926v-1.3
	h0.926v-1.231l1.756-0.502V25.771z M84.248,29.735c0,0.587-0.227,1.048-0.678,1.383c-0.451,0.334-1.061,0.502-1.826,0.502
	c-0.605,0-1.158-0.097-1.656-0.29v-1.428c0.572,0.346,1.117,0.518,1.635,0.518c0.557,0,0.836-0.172,0.836-0.518
	c0-0.115-0.027-0.205-0.08-0.271c-0.055-0.065-0.15-0.133-0.285-0.203c-0.137-0.071-0.373-0.171-0.711-0.302
	c-0.49-0.178-0.846-0.396-1.064-0.654c-0.219-0.259-0.33-0.6-0.33-1.023c0-0.551,0.221-0.99,0.658-1.321
	c0.439-0.331,1.018-0.497,1.74-0.497c0.465,0,0.936,0.077,1.416,0.229v1.36c-0.439-0.26-0.904-0.391-1.395-0.391
	c-0.465,0-0.697,0.16-0.697,0.48c0,0.122,0.025,0.219,0.074,0.289c0.047,0.07,0.133,0.141,0.258,0.21
	c0.125,0.067,0.311,0.147,0.561,0.236c0.557,0.204,0.955,0.437,1.189,0.696C84.129,29.004,84.248,29.334,84.248,29.735
	 M79.168,28.548c0,0.944-0.279,1.692-0.838,2.244c-0.561,0.552-1.318,0.828-2.277,0.828c-0.941,0-1.686-0.264-2.236-0.792
	s-0.824-1.255-0.824-2.18c0-0.944,0.281-1.684,0.846-2.217s1.33-0.801,2.291-0.801c0.938,0,1.678,0.266,2.223,0.795
	S79.168,27.663,79.168,28.548 M91.166,28.548c0,0.944-0.279,1.692-0.838,2.244c-0.561,0.552-1.32,0.828-2.279,0.828
	c-0.939,0-1.684-0.264-2.234-0.792s-0.826-1.255-0.826-2.18c0-0.944,0.283-1.684,0.848-2.217c0.566-0.533,1.33-0.801,2.291-0.801
	c0.938,0,1.678,0.266,2.223,0.795S91.166,27.663,91.166,28.548 M130.551,27.428c0,0.816-0.166,1.545-0.5,2.185
	c-0.332,0.64-0.801,1.134-1.404,1.483s-1.287,0.524-2.049,0.524c-0.744,0-1.412-0.171-2.008-0.511
	c-0.594-0.34-1.055-0.816-1.383-1.43c-0.326-0.613-0.49-1.311-0.49-2.091c0-0.829,0.166-1.564,0.496-2.208
	c0.332-0.643,0.803-1.143,1.414-1.497s1.311-0.532,2.098-0.532c0.736,0,1.398,0.168,1.982,0.508
	c0.586,0.338,1.039,0.816,1.361,1.438C130.389,25.918,130.551,26.628,130.551,27.428 M114.939,29.233
	c0,0.759-0.275,1.346-0.826,1.762c-0.549,0.416-1.309,0.625-2.279,0.625c-0.826,0-1.514-0.149-2.068-0.446V29.39
	c0.639,0.542,1.344,0.813,2.113,0.813c0.371,0,0.658-0.074,0.861-0.223c0.201-0.148,0.303-0.346,0.303-0.591
	c0-0.241-0.096-0.452-0.293-0.63c-0.193-0.179-0.59-0.408-1.189-0.691c-1.219-0.572-1.828-1.354-1.828-2.342
	c0-0.717,0.266-1.293,0.797-1.727c0.531-0.432,1.238-0.648,2.119-0.648c0.779,0,1.428,0.102,1.939,0.307v1.667
	c-0.539-0.372-1.152-0.558-1.84-0.558c-0.346,0-0.619,0.073-0.818,0.221c-0.201,0.146-0.303,0.342-0.303,0.588
	c0,0.252,0.082,0.459,0.244,0.621c0.16,0.162,0.492,0.361,0.994,0.6c0.748,0.354,1.279,0.712,1.598,1.076
	S114.939,28.691,114.939,29.233 M118.012,31.48h-1.801v-7.995h2.82c2.016,0,3.021,0.849,3.021,2.548
	c0,0.527-0.131,0.996-0.395,1.405s-0.641,0.726-1.127,0.95s-1.041,0.338-1.66,0.338h-0.859V31.48z M61.868,31.48h-1.762v-5.71h1.762
	V31.48z M108.623,24.951h-2.811v1.779h2.615v1.461h-2.615v1.828h2.994v1.461h-4.795v-7.995h4.611V24.951z M133.672,30.02h2.961
	v1.461h-4.762v-7.995h1.801V30.02z M70.593,31.48h-1.762v-5.71h1.762v1.06h0.023c0.278-0.773,0.78-1.16,1.504-1.16
	c0.182,0,0.328,0.023,0.436,0.068v1.621c-0.209-0.115-0.455-0.172-0.742-0.172c-0.387,0-0.687,0.138-0.9,0.416
	c-0.214,0.275-0.321,0.66-0.321,1.15V31.48z M50.975,31.48h-1.623v-7.995h2.637l1.634,4.739c0.111,0.323,0.207,0.704,0.284,1.143
	h0.034c0.093-0.428,0.199-0.813,0.317-1.154l1.634-4.728h2.57v7.995h-1.778v-4.783c0-0.499,0.022-1.069,0.067-1.713h-0.044
	c-0.093,0.491-0.177,0.844-0.251,1.061l-1.873,5.436h-1.472L51.203,26.1c-0.048-0.141-0.132-0.512-0.251-1.115h-0.05
	c0.048,0.699,0.073,1.391,0.073,2.074V31.48z M94.355,31.48H92.6v-4.41h-0.959v-1.3H92.6v-0.708c0-0.654,0.215-1.179,0.646-1.574
	s1.004-0.594,1.717-0.594c0.342,0,0.639,0.037,0.893,0.111v1.371c-0.234-0.09-0.451-0.133-0.652-0.133
	c-0.564,0-0.848,0.307-0.848,0.92v0.606h1.305v1.3h-1.305V31.48z M89.371,28.581c0-1.067-0.426-1.601-1.277-1.601
	c-0.416,0-0.738,0.144-0.969,0.43c-0.23,0.287-0.346,0.691-0.346,1.215c0,1.098,0.441,1.646,1.326,1.646
	C88.949,30.271,89.371,29.707,89.371,28.581 M77.373,28.581c0-1.067-0.426-1.601-1.277-1.601c-0.416,0-0.738,0.144-0.969,0.43
	c-0.23,0.287-0.346,0.691-0.346,1.215c0,1.098,0.441,1.646,1.326,1.646C76.951,30.271,77.373,29.707,77.373,28.581 M128.654,27.527
	c0-0.814-0.174-1.455-0.523-1.924c-0.35-0.468-0.834-0.702-1.455-0.702c-0.625,0-1.125,0.235-1.5,0.708s-0.563,1.101-0.563,1.885
	c0,0.781,0.184,1.404,0.551,1.87c0.369,0.467,0.857,0.7,1.467,0.7c0.621,0,1.113-0.227,1.477-0.678
	C128.473,28.936,128.654,28.315,128.654,27.527 M118.719,24.868h-0.707v2.491h0.707c0.959,0,1.439-0.42,1.439-1.26
	C120.158,25.279,119.678,24.868,118.719,24.868 M62.014,23.953c0,0.268-0.094,0.487-0.282,0.658
	c-0.188,0.171-0.432,0.257-0.733,0.257c-0.301,0-0.545-0.087-0.733-0.263c-0.188-0.174-0.281-0.392-0.281-0.652
	c0-0.264,0.096-0.479,0.287-0.646c0.191-0.167,0.435-0.251,0.728-0.251c0.297,0,0.541,0.087,0.73,0.26
	C61.919,23.488,62.014,23.701,62.014,23.953 M55.148,19.139c-0.257,0.141-0.581,0.251-0.97,0.332
	c-0.389,0.082-0.784,0.122-1.186,0.122c-0.732,0-1.375-0.156-1.928-0.468c-0.553-0.312-0.975-0.753-1.268-1.326
	c-0.292-0.572-0.438-1.229-0.438-1.972c0-0.786,0.169-1.49,0.508-2.113c0.337-0.623,0.81-1.105,1.418-1.444
	c0.607-0.34,1.281-0.51,2.02-0.51c0.317,0,0.646,0.026,0.987,0.079c0.342,0.053,0.627,0.13,0.856,0.232v1.278
	c-0.539-0.317-1.141-0.475-1.807-0.475c-0.518,0-0.98,0.118-1.387,0.354s-0.721,0.571-0.942,1.006
	c-0.222,0.435-0.333,0.941-0.333,1.518c0,0.838,0.229,1.502,0.687,1.992s1.069,0.734,1.833,0.734c0.743,0,1.393-0.178,1.949-0.534
	V19.139z M69.321,18.648c-0.166,0.292-0.39,0.523-0.674,0.691c-0.283,0.169-0.603,0.254-0.958,0.254
	c-0.63,0-1.111-0.188-1.441-0.565c-0.332-0.377-0.497-0.942-0.497-1.696v-3.28h1.236v3.126c0,0.944,0.375,1.416,1.125,1.416
	c0.369,0,0.667-0.13,0.892-0.391c0.226-0.26,0.339-0.602,0.339-1.024v-3.126h1.23v5.408h-1.23v-0.813H69.321z M102.477,18.648
	c-0.166,0.292-0.391,0.523-0.674,0.691c-0.283,0.169-0.604,0.254-0.959,0.254c-0.631,0-1.111-0.188-1.441-0.565
	c-0.332-0.377-0.498-0.942-0.498-1.696v-3.28h1.236v3.126c0,0.944,0.375,1.416,1.125,1.416c0.371,0,0.668-0.13,0.893-0.391
	c0.227-0.26,0.338-0.602,0.338-1.024v-3.126h1.232v5.408h-1.232v-0.813H102.477z M118.465,18.716c-0.375,0.585-0.91,0.877-1.6,0.877
	c-0.531,0-0.951-0.145-1.256-0.433c-0.307-0.289-0.461-0.68-0.461-1.172c0-0.507,0.15-0.914,0.449-1.221
	c0.299-0.306,0.74-0.497,1.32-0.57l1.58-0.217c0-0.736-0.342-1.104-1.025-1.104c-0.33,0-0.652,0.055-0.963,0.164
	c-0.313,0.109-0.59,0.255-0.832,0.438v-1.077c0.193-0.123,0.484-0.234,0.873-0.333c0.391-0.099,0.738-0.148,1.049-0.148
	c0.693,0,1.215,0.181,1.566,0.542c0.35,0.361,0.525,0.884,0.525,1.571v3.428h-1.205v-0.745H118.465z M78.506,18.716
	c-0.377,0.585-0.91,0.877-1.602,0.877c-0.531,0-0.949-0.145-1.256-0.433c-0.307-0.289-0.459-0.68-0.459-1.172
	c0-0.507,0.148-0.914,0.447-1.221c0.301-0.306,0.74-0.497,1.32-0.57l1.58-0.217c0-0.736-0.342-1.104-1.025-1.104
	c-0.33,0-0.652,0.055-0.963,0.164c-0.313,0.109-0.59,0.255-0.832,0.438v-1.077c0.193-0.123,0.484-0.234,0.873-0.333
	c0.391-0.099,0.74-0.148,1.049-0.148c0.693,0,1.217,0.181,1.566,0.542s0.525,0.884,0.525,1.571v3.428h-1.203v-0.745H78.506z
	 M129.525,14.053h1.305v0.982h-1.305v2.62c0,0.342,0.063,0.583,0.186,0.727c0.123,0.143,0.316,0.213,0.58,0.213
	c0.07,0,0.16-0.015,0.268-0.045c0.107-0.029,0.197-0.069,0.271-0.119v0.977c-0.074,0.042-0.205,0.083-0.395,0.125
	c-0.188,0.04-0.369,0.061-0.547,0.061c-1.059,0-1.588-0.57-1.588-1.711v-2.847h-0.898v-0.982h0.898v-1.247l1.225-0.375V14.053z
	 M93.316,17.914c0,0.503-0.193,0.909-0.58,1.217c-0.387,0.309-0.912,0.462-1.574,0.462c-0.215,0-0.459-0.028-0.73-0.084
	c-0.273-0.057-0.502-0.127-0.686-0.211V18.13c0.227,0.162,0.473,0.287,0.74,0.375c0.268,0.087,0.508,0.132,0.725,0.132
	c0.584,0,0.877-0.194,0.877-0.581c0-0.137-0.029-0.248-0.088-0.33c-0.059-0.083-0.158-0.166-0.301-0.248
	c-0.143-0.083-0.363-0.186-0.664-0.31c-0.352-0.151-0.613-0.297-0.783-0.438c-0.172-0.141-0.299-0.307-0.381-0.497
	s-0.125-0.412-0.125-0.665c0-0.486,0.193-0.882,0.576-1.189c0.385-0.306,0.881-0.459,1.49-0.459c0.186,0,0.398,0.022,0.637,0.066
	c0.236,0.044,0.43,0.098,0.578,0.161v1.104c-0.166-0.113-0.361-0.204-0.586-0.272c-0.227-0.068-0.449-0.103-0.672-0.103
	c-0.242,0-0.434,0.055-0.574,0.164c-0.143,0.109-0.213,0.248-0.213,0.417c0,0.19,0.057,0.339,0.166,0.446
	c0.111,0.107,0.373,0.244,0.785,0.409c0.508,0.204,0.865,0.432,1.072,0.682S93.316,17.551,93.316,17.914 M96.33,14.053h1.305v0.982
	H96.33v2.62c0,0.342,0.063,0.583,0.186,0.727c0.123,0.143,0.316,0.213,0.58,0.213c0.07,0,0.16-0.015,0.268-0.045
	c0.107-0.029,0.197-0.069,0.271-0.119v0.977c-0.074,0.042-0.205,0.083-0.393,0.125c-0.189,0.04-0.371,0.061-0.547,0.061
	c-1.061,0-1.59-0.57-1.59-1.711v-2.847h-0.898v-0.982h0.898v-1.247l1.225-0.375V14.053z M57.601,17.116
	c0.024,0.493,0.174,0.868,0.449,1.125c0.275,0.257,0.667,0.385,1.178,0.385c0.306,0,0.6-0.048,0.882-0.145
	c0.281-0.097,0.528-0.221,0.739-0.373v1.03c-0.204,0.134-0.479,0.243-0.824,0.327c-0.345,0.085-0.709,0.127-1.093,0.127
	c-0.82,0-1.456-0.246-1.906-0.737c-0.451-0.491-0.676-1.173-0.676-2.046c0-0.578,0.111-1.083,0.335-1.516
	c0.224-0.434,0.533-0.771,0.929-1.012c0.396-0.241,0.832-0.362,1.307-0.362c0.747,0,1.327,0.229,1.741,0.687
	c0.413,0.458,0.62,1.091,0.62,1.901v0.608H57.601z M110.512,19.461h-1.221v-0.845h-0.02c-0.389,0.651-0.98,0.977-1.775,0.977
	c-0.684,0-1.227-0.243-1.633-0.729c-0.404-0.486-0.607-1.145-0.607-1.976c0-0.898,0.225-1.617,0.674-2.158
	c0.449-0.54,1.051-0.811,1.805-0.811c0.342,0,0.645,0.069,0.908,0.206s0.473,0.336,0.629,0.597h0.02v-3.269h1.221V19.461z
	 M122.588,19.461h-1.221v-5.408h1.221v0.866h0.021c0.404-0.665,0.988-0.998,1.754-0.998c0.574,0,1.018,0.183,1.332,0.549
	c0.316,0.366,0.475,0.922,0.475,1.669v3.322h-1.221v-3.037c0-0.507-0.086-0.884-0.256-1.133c-0.172-0.248-0.447-0.373-0.828-0.373
	c-0.369,0-0.674,0.14-0.916,0.42c-0.24,0.28-0.361,0.629-0.361,1.048V19.461z M63.952,19.461h-1.221v-8.007h1.221V19.461z
	 M73.723,19.461h-1.221v-8.007h1.221V19.461z M136.623,19.461h-1.219v-8.007h1.219V19.461z M88.445,12.97h-2.842v2.134h2.641v1.078
	h-2.641v2.197h3.016v1.083h-4.273v-7.574h4.1V12.97z M113.684,19.461h-1.221v-5.408h1.221V19.461z M133.463,19.461h-1.221v-5.408
	h1.221V19.461z M116.348,17.861c0,0.232,0.084,0.418,0.254,0.557s0.383,0.208,0.645,0.208c0.361,0,0.662-0.124,0.896-0.372
	c0.236-0.248,0.355-0.561,0.355-0.938v-0.485l-1.168,0.153c-0.369,0.052-0.625,0.144-0.77,0.274
	C116.42,17.389,116.348,17.589,116.348,17.861 M76.387,17.861c0,0.232,0.086,0.418,0.254,0.557c0.17,0.139,0.385,0.208,0.645,0.208
	c0.363,0,0.662-0.124,0.898-0.372s0.354-0.561,0.354-0.938v-0.485l-1.168,0.153c-0.369,0.052-0.625,0.144-0.768,0.274
	C76.459,17.389,76.387,17.589,76.387,17.861 M109.303,16.303c0-0.38-0.127-0.706-0.383-0.978c-0.256-0.271-0.572-0.407-0.949-0.407
	c-0.461,0-0.816,0.169-1.068,0.507c-0.252,0.338-0.379,0.813-0.379,1.426c0,0.545,0.125,0.973,0.373,1.281
	c0.248,0.308,0.584,0.462,1.012,0.462c0.395,0,0.725-0.156,0.992-0.467c0.268-0.312,0.402-0.717,0.402-1.218V16.303z M60.067,16.197
	c0-0.43-0.101-0.757-0.301-0.983s-0.482-0.338-0.845-0.338c-0.331,0-0.618,0.122-0.86,0.367c-0.243,0.245-0.396,0.563-0.459,0.954
	H60.067z M58.921,13.022h-0.908l1.22-1.716h1.178L58.921,13.022z M133.615,12.141c0,0.201-0.072,0.368-0.219,0.502
	c-0.146,0.134-0.322,0.201-0.531,0.201c-0.207,0-0.383-0.067-0.527-0.201c-0.145-0.134-0.217-0.301-0.217-0.502
	c0-0.205,0.072-0.375,0.219-0.513c0.146-0.137,0.322-0.206,0.525-0.206c0.215,0,0.395,0.071,0.537,0.211
	S133.615,11.943,133.615,12.141 M113.836,12.141c0,0.201-0.072,0.368-0.219,0.502c-0.146,0.134-0.322,0.201-0.531,0.201
	c-0.207,0-0.383-0.067-0.527-0.201c-0.145-0.134-0.217-0.301-0.217-0.502c0-0.205,0.072-0.375,0.219-0.513
	c0.146-0.137,0.322-0.206,0.525-0.206c0.215,0,0.395,0.071,0.537,0.211S113.836,11.943,113.836,12.141"/>
<path fill-rule="evenodd" clip-rule="evenodd" fill="#FA8D29" d="M15.57,28.376c4.456,7.718,14.211,10.438,21.772,6.073
	c7.561-4.365,10.082-14.175,5.625-21.892c2.201,6.447-0.832,14.463-7.644,18.397C28.512,34.887,20.054,33.504,15.57,28.376"/>
<path fill-rule="evenodd" clip-rule="evenodd" fill="#EB0029" d="M39.47,7.358c-7.763-7.762-20.37-7.76-28.135,0.006
	c-7.766,7.766-7.769,20.372-0.006,28.135c-4.649-6.994-3.475-17.622,3.522-24.619C21.848,3.883,32.476,2.709,39.47,7.358
	 M25.428,25.283c0.461,0.146,0.965,0.064,1.356-0.223c0.391-0.285,0.622-0.74,0.622-1.226v-7.982c0-0.484-0.23-0.939-0.622-1.226
	s-0.895-0.369-1.356-0.223c-2.597,0.823-7.063,2.238-9.094,2.882c-0.631,0.2-1.061,0.786-1.061,1.448v2.218
	c0,0.662,0.429,1.248,1.061,1.449C18.365,23.045,22.831,24.461,25.428,25.283"/>
<path fill-rule="evenodd" clip-rule="evenodd" fill="#5B2B82" d="M14.986,13.459c-6.414,6.415-6.445,16.798-0.069,23.174
	c6.376,6.377,16.76,6.346,23.175-0.069c-5.774,3.849-14.525,2.909-20.27-2.835C12.078,27.984,11.138,19.233,14.986,13.459
	 M30.416,14.405c-0.461-0.146-0.965-0.064-1.356,0.223c-0.391,0.286-0.622,0.741-0.622,1.226v7.982c0,0.485,0.231,0.94,0.622,1.226
	c0.391,0.287,0.895,0.369,1.356,0.223c2.597-0.822,7.063-2.238,9.094-2.881c0.631-0.201,1.06-0.787,1.06-1.449v-2.218
	c0-0.662-0.429-1.248-1.06-1.448C37.479,16.643,33.013,15.228,30.416,14.405"/>
</svg>
