<?xml version="1.0" encoding="UTF-8" standalone="no"?>
<!-- Created with Inkscape (http://www.inkscape.org/) -->

<svg
   xmlns:dc="http://purl.org/dc/elements/1.1/"
   xmlns:cc="http://creativecommons.org/ns#"
   xmlns:rdf="http://www.w3.org/1999/02/22-rdf-syntax-ns#"
   xmlns:svg="http://www.w3.org/2000/svg"
   xmlns="http://www.w3.org/2000/svg"
   xmlns:sodipodi="http://sodipodi.sourceforge.net/DTD/sodipodi-0.dtd"
   xmlns:inkscape="http://www.inkscape.org/namespaces/inkscape"
   version="1.1"
   id="svg815"
   xml:space="preserve"
   width="520.37836"
   height="700.59503"
   viewBox="0 0 520.37837 700.59501"
   sodipodi:docname="notfound.svg"
   inkscape:version="0.92.4 (5da689c313, 2019-01-14)"><metadata
     id="metadata821"><rdf:RDF><cc:Work
         rdf:about=""><dc:format>image/svg+xml</dc:format><dc:type
           rdf:resource="http://purl.org/dc/dcmitype/StillImage" /><dc:title></dc:title></cc:Work></rdf:RDF></metadata><defs
     id="defs819"><clipPath
       clipPathUnits="userSpaceOnUse"
       id="clipPath831"><path
         d="M 0,841.9 H 1190.6 V 0 H 0 Z"
         id="path829"
         inkscape:connector-curvature="0" /></clipPath></defs><sodipodi:namedview
     pagecolor="#ffffff"
     bordercolor="#666666"
     borderopacity="1"
     objecttolerance="10"
     gridtolerance="10"
     guidetolerance="10"
     inkscape:pageopacity="0"
     inkscape:pageshadow="2"
     inkscape:window-width="1366"
     inkscape:window-height="705"
     id="namedview817"
     showgrid="false"
     showguides="false"
     inkscape:zoom="0.47749139"
     inkscape:cx="1113.3709"
     inkscape:cy="538.78032"
     inkscape:window-x="-8"
     inkscape:window-y="-8"
     inkscape:window-maximized="1"
     inkscape:current-layer="g823"
     fit-margin-top="0"
     fit-margin-left="0"
     fit-margin-right="0"
     fit-margin-bottom="0" /><g
     id="g823"
     inkscape:groupmode="layer"
     inkscape:label="LOGO 1 CELULA"
     transform="matrix(1.3333333,0,0,-1.3333333,-1.834171,705.27995)"><g
       clip-path="url(#clipPath831)"
       id="g827"
       transform="translate(-373.82874,-116.23247)"><g
         id="g1115"
         transform="matrix(1.5069234,0,0,1.5069234,-455.29694,-170.84523)"><g
           id="g841"
           transform="translate(681.1999,386.46615)"><path
             d="m 0,0 c 3.015,-0.956 6.305,-0.416 8.857,1.453 2.553,1.868 4.061,4.842 4.061,8.005 V 61.58 c 0,3.163 -1.508,6.137 -4.061,8.005 C 6.305,71.454 3.015,71.994 0,71.038 -16.958,65.664 -46.123,56.422 -59.383,52.22 c -4.123,-1.306 -6.925,-5.133 -6.925,-9.458 V 28.276 c 0,-4.325 2.802,-8.152 6.925,-9.458 C -46.123,14.616 -16.958,5.374 0,0 m 91.691,117.054 c -50.689,50.689 -133.012,50.672 -183.723,-0.039 -50.71,-50.71 -50.728,-133.034 -0.039,-183.723 -30.36,45.674 -22.69,115.073 23,160.763 45.689,45.689 115.089,53.359 160.762,22.999"
             style="fill:#dc0021;fill-opacity:1;fill-rule:evenodd;stroke:none"
             id="path843"
             inkscape:connector-curvature="0" /></g><g
           id="g845"
           transform="translate(713.7687,457.50425)"><path
             d="m 0,0 c -3.016,0.956 -6.306,0.416 -8.858,-1.453 -2.552,-1.868 -4.061,-4.842 -4.061,-8.005 V -61.58 c 0,-3.163 1.509,-6.137 4.061,-8.005 2.552,-1.869 5.842,-2.409 8.858,-1.453 16.958,5.374 46.122,14.616 59.383,18.818 4.122,1.306 6.924,5.133 6.924,9.458 v 14.486 c 0,4.325 -2.802,8.152 -6.924,9.458 C 46.122,-14.616 16.958,-5.374 0,0 m -100.756,6.172 c -41.886,-41.886 -42.089,-109.695 -0.453,-151.331 41.636,-41.636 109.445,-41.433 151.331,0.453 -37.701,-25.128 -94.845,-18.994 -132.358,18.519 -37.514,37.515 -43.648,94.658 -18.52,132.359"
             style="fill:#4f297a;fill-opacity:1;fill-rule:evenodd;stroke:none"
             id="path847"
             inkscape:connector-curvature="0" /></g><g
           id="g837"
           transform="translate(616.8268,366.27575)"><path
             d="m 0,0 c 29.096,-50.396 92.802,-68.169 142.174,-39.663 49.372,28.505 65.834,92.562 36.738,142.958 C 193.279,61.194 173.478,8.848 128.995,-16.836 84.511,-42.519 29.277,-33.492 0,0"
             style="fill:#ef8318;fill-opacity:1;fill-rule:evenodd;stroke:none"
             id="path839"
             inkscape:connector-curvature="0" /></g></g><g
         id="g1191"
         transform="matrix(1.9807059,0,0,1.9807059,-1155.8845,-545.29758)"><g
           transform="matrix(0.75000002,0,0,-0.75000002,-170.42394,396.46706)"
           id="g922"><g
             transform="matrix(0.31281465,0,0,0.31281465,1277.7326,-173.87174)"
             id="g1074"><path
               id="path906"
               d="m 562.94276,219.49864 -41.868,41.868 c -4.057,4.057 -10.634,4.057 -14.691,0 l -26.59,-26.59 56.56,-56.56 26.59,26.59 c 4.056,4.057 4.056,10.635 -10e-4,14.692 z"
               inkscape:connector-curvature="0"
               style="fill:#2b4d66" /><path
               id="path908"
               d="m 524.97681,257.40064 33.93105,-33.93105 33.93105,33.93105 -33.93105,33.93105 z"
               inkscape:connector-curvature="0"
               style="fill:#4a80aa;stroke-width:0.99984896" /><path
               id="path910"
               d="m 747.70476,404.26064 -41.868,41.868 c -4.057,4.057 -10.634,4.057 -14.691,0 l -136.136,-136.135 c -4.057,-4.057 -4.057,-10.634 0,-14.691 l 41.868,-41.868 c 4.057,-4.057 10.634,-4.057 14.691,0 l 136.135,136.135 c 4.058,4.056 4.058,10.634 10e-4,14.691 z"
               inkscape:connector-curvature="0"
               style="fill:#407093" /><path
               id="path912"
               d="m 747.70476,404.26064 -11.508,11.508 -150.826,-150.827 11.508,-11.508 c 4.057,-4.057 10.634,-4.057 14.691,0 l 136.135,136.135 c 4.057,4.057 4.057,10.635 0,14.692 z"
               inkscape:connector-curvature="0"
               style="fill:#365e7d" /><path
               inkscape:connector-curvature="0"
               style="fill:#407093"
               d="M 1095.6211,479.0918 A 159.976,159.976 0 0 0 935.64453,639.06836 159.976,159.976 0 0 0 1095.6211,799.04297 159.976,159.976 0 0 0 1255.5957,639.06836 159.976,159.976 0 0 0 1095.6211,479.0918 Z m 0,42.66015 A 117.315,117.315 0 0 1 1212.9355,639.06836 117.315,117.315 0 0 1 1095.6211,756.38281 117.315,117.315 0 0 1 978.30469,639.06836 117.315,117.315 0 0 1 1095.6211,521.75195 Z"
               transform="translate(-696.89689,-541.92027)"
               id="circle914" /><path
               id="path916"
               d="m 495.46776,-30.258358 c 20.433,26.8670004 32.57,60.386 32.57,96.744 0,88.351998 -71.624,159.975998 -159.976,159.975998 -36.358,0 -69.877,-12.137 -96.744,-32.57 29.22,38.421 75.412,63.232 127.406,63.232 88.352,0 159.976,-71.624 159.976,-159.975998 -10e-4,-51.994 -24.812,-98.1869996 -63.232,-127.406 z"
               inkscape:connector-curvature="0"
               style="fill:#365e7d" /><circle
               id="circle918-4"
               r="117.315"
               cy="92.646149"
               cx="398.41083"
               style="fill:#e4f6ff;fill-opacity:0.57286431" /><path
               id="path920"
               d="m 469.56876,3.6386424 c 14.938,19.6849996 23.807,44.2279996 23.807,70.8449996 0,64.791998 -52.524,117.314998 -117.315,117.314998 -26.617,0 -51.16,-8.87 -70.845,-23.807 21.423,28.233 55.334,46.47 93.508,46.47 64.792,0 117.315,-52.524 117.315,-117.314998 0,-38.174 -18.238,-72.084 -46.47,-93.5079996 z"
               inkscape:connector-curvature="0"
               style="fill:#d3effb;fill-opacity:0.91457286" /></g></g><g
           transform="matrix(0.28912691,0,0,0.28912691,649.52427,292.93082)"
           id="g1176"><path
             style="fill:#ff0000;fill-opacity:1;stroke:none;stroke-width:0.75px;stroke-linecap:round;stroke-linejoin:round;stroke-opacity:1;paint-order:stroke fill markers"
             d="m 752.36957,750.79888 c 75.39405,-64.39907 73.82333,-62.82836 73.82333,-62.82836 l 18.84855,20.41922 -72.2526,59.68694 z"
             id="path1147"
             inkscape:connector-curvature="0" /><path
             style="fill:#ff0000;fill-opacity:1;stroke:none;stroke-width:0.75118113;stroke-linecap:round;stroke-linejoin:round;stroke-miterlimit:4;stroke-dasharray:none;stroke-opacity:1;paint-order:stroke fill markers"
             d="m 847.38018,751.52884 c -75.39405,-64.39907 -73.82333,-62.82836 -73.82333,-62.82836 l -18.84856,20.41922 72.25261,59.68694 z"
             id="path1147-3"
             inkscape:connector-curvature="0" /></g><text
           xml:space="preserve"
           style="font-style:normal;font-weight:normal;font-size:131.12271118px;line-height:1.25;font-family:sans-serif;letter-spacing:0px;word-spacing:0px;fill:#000000;fill-opacity:1;stroke:none;stroke-width:3.2780683"
           x="873.12103"
           y="-336.82806"
           id="text1195"
           transform="scale(1,-1)"><tspan
             sodipodi:role="line"
             id="tspan1193"
             x="873.12103"
             y="-336.82806"
             style="font-style:normal;font-variant:normal;font-weight:bold;font-stretch:normal;font-size:87.4151535px;font-family:'Segoe UI';-inkscape-font-specification:'Segoe UI Bold';text-align:center;text-anchor:middle;stroke-width:3.2780683">404</tspan></text>
</g></g></g></svg>