<svg id="Capa_1" data-name="Capa 1" xmlns="http://www.w3.org/2000/svg" viewBox="0 0 101.53 41.5"><defs><style>.cls-1,.cls-6{opacity:0.4;}.cls-2{fill:#f5d402;}.cls-3{fill:#191497;}.cls-4{fill:#d61a0c;}.cls-5,.cls-6{fill:#d3d2d3;}.cls-7{fill:#8fbc8f;}</style></defs><title>bioweb</title><g class="cls-1"><path class="cls-2" d="M58.2,37.2h5.2v.6H58.9v2.7h4.2v.6H58.9v3h4.6v.6H58.2Z" transform="translate(-5.37 -3.5)"/><path class="cls-2" d="M70,39.4a2.25,2.25,0,0,0-2.3-1.8c-2,0-2.9,1.7-2.9,3.3s.9,3.3,2.9,3.3a2.43,2.43,0,0,0,2.4-2.4h.7a3.13,3.13,0,0,1-3.2,3.1A3.59,3.59,0,0,1,64,41c0-2.1,1.2-3.9,3.6-3.9a3,3,0,0,1,3.1,2.5H70Z" transform="translate(-5.37 -3.5)"/><path class="cls-2" d="M71.9,37.2h.7v4.7c0,1.8.8,2.4,2.2,2.4A2,2,0,0,0,77,41.9V37.2h.7V42a2.71,2.71,0,0,1-3,2.9A2.63,2.63,0,0,1,71.8,42l.1-4.8Z" transform="translate(-5.37 -3.5)"/><path class="cls-3" d="M81.4,37.2h.8l3,7.6h-.8l-.9-2.4H80l-.9,2.4h-.8Zm-1.2,4.5h3l-1.5-3.9Z" transform="translate(-5.37 -3.5)"/><path class="cls-3" d="M85.8,37.2h2.6c2.3.1,3.5,1.3,3.5,3.8s-1.2,3.7-3.5,3.8H85.8Zm.8,6.9h1.6c2.2,0,3.1-.9,3.1-3.2s-1-3.2-3.1-3.2H86.6Z" transform="translate(-5.37 -3.5)"/><path class="cls-4" d="M96.2,37a3.59,3.59,0,0,1,3.6,3.9c0,2.1-1.2,3.9-3.6,3.9a3.59,3.59,0,0,1-3.6-3.9C92.7,38.9,93.9,37,96.2,37Zm0,7.2c2,0,2.9-1.7,2.9-3.3s-.9-3.3-2.9-3.3-2.9,1.7-2.9,3.3S94.2,44.2,96.2,44.2Z" transform="translate(-5.37 -3.5)"/><path class="cls-4" d="M100.9,37.2h3.5c1.3,0,2.3.6,2.3,2a1.71,1.71,0,0,1-1.5,1.9h0a1.48,1.48,0,0,1,1.3,1.7,6.47,6.47,0,0,0,.4,2h-.8a2.54,2.54,0,0,1-.2-1.2c-.1-1.1-.2-2.3-1.5-2.2h-2.7v3.4H101l-.1-7.6Zm.8,3.5h2.7a1.5,1.5,0,0,0,1.6-1.5,1.45,1.45,0,0,0-1.6-1.5h-2.7Z" transform="translate(-5.37 -3.5)"/></g><g class="cls-1"><path class="cls-5" d="M51.6,6.3V44.8a.2.2,0,1,0,.4,0V6.3a.22.22,0,0,0-.2-.2C51.6,6.1,51.6,6.2,51.6,6.3Z" transform="translate(-5.37 -3.5)"/></g><path class="cls-6" d="M89.6,13.5c-.7-.2-2.7-1.2-3.5-1.2s-3.5-.2-4-.2-1.6.7-2.2.7-1.8.5-2.3.6-1.2,1-1.8,1.3a8,8,0,0,1-1.6.5s-.8-1.1-1-1.5A17.68,17.68,0,0,1,72,10.2a9.94,9.94,0,0,0-.7-2.4c-.4-.3-1.1-.9-1.4-1.1s-.8-.6-1.1-.6a1.88,1.88,0,0,0-.9.4c-.2.1-.2.2-.2.2a3.33,3.33,0,0,0,.6.3c.1.1.3.2.4.4a1,1,0,0,1,.1.4s-.7-.4-.7-.5a1.44,1.44,0,0,1-.2-.3,1.23,1.23,0,0,0-.2.5A11.31,11.31,0,0,0,68.1,9a8.34,8.34,0,0,0,.8,1.2,9.52,9.52,0,0,1,1.4,2.1,39.86,39.86,0,0,0,1.4,4.1c.5.8.8,1.6,1.3,1.9s1.3.5,1.4.8a6.34,6.34,0,0,0,1.1,1.3,4.32,4.32,0,0,1,.6.9c.1.2.1.4-.2.6a7,7,0,0,0-.9.6c-.2.2.1.5.1.5s-.3.2-.7.5-.9.8-1.3,1.1a8.06,8.06,0,0,0-1.2,1.8,9.33,9.33,0,0,0-.7,2c-.2.7-.1,1-.2,1.2s-.3.5-.4.7-.4.6-.5.7-.1.3.1.4.7.1,1,.2.4.2,1,.1a5.63,5.63,0,0,0,1-.2,2.4,2.4,0,0,0,.7-1.2,22.88,22.88,0,0,1,1-2.3c.3-.4,1.1-1.5,1.5-1.9a4.5,4.5,0,0,1,1.4-.7c.3,0,.6-.1.7,0s.8.6,1.1.9a8.28,8.28,0,0,1,1.1,1.5c.2.4.2.8.3.8s.2.1.1.4-.1.7-.2,1.1.1.7.2.7.7-.1.7-.1a.77.77,0,0,1,.3-.2c.2-.2.3-.2.4-.3a1.47,1.47,0,0,0,.5-.6c.1-.3.3-.6.4-.9a1.7,1.7,0,0,0,0-1,8.92,8.92,0,0,0-.5-1s1.8.2,2.3.2a19.19,19.19,0,0,0,2.2-.3,4.43,4.43,0,0,1,1.5-.3c.5,0,1.6.1,1.6.1a5.64,5.64,0,0,0-.1.7,4.35,4.35,0,0,0,.4.7,1.45,1.45,0,0,0,.2.7c.2.2.4.3.4.6s.3.9.3,1.2a2.2,2.2,0,0,0-.1.8c-.1.5-.2.8-.1,1s.1.4.2.5a2.51,2.51,0,0,0,1,.1,5.63,5.63,0,0,0,1.3,0,3.09,3.09,0,0,0,1.3-.2c.2-.2.4-.2.3-.6s-.4-.7-.5-1.1a5,5,0,0,0-.5-1.3,3.26,3.26,0,0,1-.4-1.4,2.53,2.53,0,0,1,.1-1.1,1.13,1.13,0,0,1,.7.4c.3.4.8.8.8,1a6.47,6.47,0,0,1,.4,1.3c-.1.3.1.7.1.9s.1.4.1.7a3.44,3.44,0,0,1,.1.9c0,.3-.2.6.1.7s.4.4.8.4h1a2.25,2.25,0,0,1,.7-.1c.4,0,.4.2.6,0s.2-.4.4-.5a1.31,1.31,0,0,0,.2-1.1c-.2-.4-.7-1.3-.9-1.7a9.5,9.5,0,0,1-1-1.7c-.1-.6.1-1.4-.2-2A4.28,4.28,0,0,1,98,25a1.4,1.4,0,0,1,.4-.5c.2-.1,1.1-.4,1.2-.8a3.09,3.09,0,0,0-.1-1.5s.2-.3.1-.4.1-.3-.1-.5-.8-.4-1.2-.7-1.4-.5-1.8-.8-1.3-2.6-2.3-3.3-2-1.8-2.5-2.1A6.37,6.37,0,0,0,89.6,13.5Z" transform="translate(-5.37 -3.5)"/><g class="cls-1"><path class="cls-7" d="M8.9,27.3H6.4V3.5H9.1V12a5.67,5.67,0,0,1,2-1.8,5,5,0,0,1,2.4-.6,6.46,6.46,0,0,1,3.4,1,8.37,8.37,0,0,1,2.5,3,12.25,12.25,0,0,1,.9,4.9,10.06,10.06,0,0,1-2.1,6.8,6.25,6.25,0,0,1-4.8,2.4,4.3,4.3,0,0,1-2.5-.7A5.75,5.75,0,0,1,9,25.1l-.1,2.2Zm-.1-8.7a10.17,10.17,0,0,0,.6,4,4.09,4.09,0,0,0,1.6,2,3.69,3.69,0,0,0,2.3.7,3.93,3.93,0,0,0,3-1.7,7.86,7.86,0,0,0,1.3-5c0-2.3-.4-3.9-1.3-5A3.84,3.84,0,0,0,13.2,12a3.93,3.93,0,0,0-3,1.7A7.53,7.53,0,0,0,8.8,18.6Z" transform="translate(-5.37 -3.5)"/><path class="cls-7" d="M23.5,6.9V3.5h2.7V6.9Zm0,20.4V10.1h2.7V27.4A24.37,24.37,0,0,0,23.5,27.3Z" transform="translate(-5.37 -3.5)"/><path class="cls-7" d="M29.3,18.7c0-3,.7-5.2,2.1-6.7A7.26,7.26,0,0,1,42,12a9.37,9.37,0,0,1,2.2,6.6q0,4.65-2.1,6.9a7.37,7.37,0,0,1-10.7,0C30,23.9,29.3,21.7,29.3,18.7Zm2.7,0a7.65,7.65,0,0,0,1.4,5,4.36,4.36,0,0,0,3.4,1.7,4.17,4.17,0,0,0,3.3-1.7,7.84,7.84,0,0,0,1.4-5,7.84,7.84,0,0,0-1.4-5A4.36,4.36,0,0,0,36.7,12a4.17,4.17,0,0,0-3.3,1.7A7.84,7.84,0,0,0,32,18.7Z" transform="translate(-5.37 -3.5)"/></g><g class="cls-1"><path class="cls-5" d="M34.5,29.8a.32.32,0,0,1,.3-.3h3.7c.7,0,4.6-.2,4.6,3.6a2.91,2.91,0,0,1-2.2,3.2c1.9.4,2.7,1.5,2.7,3.5,0,2.7-1.7,4.2-4.6,4.2H34.8a.32.32,0,0,1-.3-.3Zm3.6,5.9c2.2,0,3.1-.6,3.1-2.5s-.9-2.4-3.2-2.4H36.8a.32.32,0,0,0-.3.3v4.3a.32.32,0,0,0,.3.3Zm.4,6.8c2.2,0,3.1-.8,3.1-2.7,0-2.1-1-2.9-3.4-2.9H36.8a.32.32,0,0,0-.3.3v5a.32.32,0,0,0,.3.3Z" transform="translate(-5.37 -3.5)"/><path class="cls-5" d="M5.4,29.9c-.1-.2.1-.3.2-.3H7.1c.2,0,.3.1.4.3L10,40.8h0l2.1-10.9c.1-.2.2-.3.4-.3H14c.2,0,.3.1.4.3l2.4,10.9c.1.2.1.2.1,0l2.4-10.9c.1-.2.2-.3.4-.3h1.4c.2,0,.3.1.2.3L18,43.6c-.1.2-.2.3-.4.3H16c-.2,0-.3-.1-.4-.3L13.2,33.1c-.1-.2-.1-.2-.1,0L11,43.6c-.1.2-.2.3-.4.3H9.3c-.2,0-.3-.1-.4-.3Z" transform="translate(-5.37 -3.5)"/><path class="cls-5" d="M25.3,36.8h5.3a.62.62,0,0,0,.7-.7v-.6c0-4.1-1.4-6.1-4.2-6.1-3.1,0-4.3,2.4-4.3,7.3,0,4.7,1.4,7,4.3,7,2.5,0,3.9-1.5,4.2-4.2v-.1c.1-.7-.8-.7-.8-.7h-.3s-.8-.1-.9.6v.2c-.2,1.7-1,2.7-2.2,2.7-1.8,0-2.5-1.6-2.5-4.9v-.1A1.18,1.18,0,0,1,25.3,36.8Zm-.5-2.1s.1-3.6,2.3-3.5c1.5.1,2.1,1.1,2.2,3.5,0,.1,0,.7-.6.7H25.3C25,35.3,24.7,35,24.8,34.7Z" transform="translate(-5.37 -3.5)"/></g></svg>