<?xml version="1.0" encoding="utf-8"?>
<!-- Generator: Adobe Illustrator 20.1.0, SVG Export Plug-In . SVG Version: 6.00 Build 0)  -->
<svg version="1.1" id="Capa_1" xmlns="http://www.w3.org/2000/svg" xmlns:xlink="http://www.w3.org/1999/xlink" x="0px" y="0px"
	 viewBox="0 0 110.1 47.8" style="enable-background:new 0 0 110.1 47.8;" xml:space="preserve">
<style type="text/css">
	.st0{fill:#D3D2D3;}
	.st1{fill:#D3D2D3;}
	.eca{fill:#f5d402;}
	.eaz{fill:#191497;}
	.ecr{fill:#d61a0c;}
	.gre{fill:#8FBC8F;}
</style>
<g>
	<path class="eca" d="M58.2,37.2h5.2v0.6h-4.5v2.7h4.2v0.6h-4.2v3h4.6v0.6h-5.3V37.2z"/>
	<path class="eca" d="M70,39.4c-0.3-1.2-1.2-1.8-2.3-1.8c-2,0-2.9,1.7-2.9,3.3c0,1.7,0.9,3.3,2.9,3.3c1.4,0,2.3-1.1,2.4-2.4h0.7
		c-0.2,1.9-1.4,3.1-3.2,3.1C65.2,44.9,64,43,64,41c0-2.1,1.2-3.9,3.6-3.9c1.4,0,2.9,0.9,3.1,2.5H70V39.4z"/>
	<path class="eca" d="M71.9,37.2h0.7v4.7c0,1.8,0.8,2.4,2.2,2.4c1.4,0,2.3-0.7,2.2-2.4v-4.7h0.7V42c0,1.6-0.9,2.9-3,2.9
		s-2.9-1.3-2.9-2.9L71.9,37.2L71.9,37.2z"/>
	<path class="eaz" d="M81.4,37.2h0.8l3,7.6h-0.8l-0.9-2.4H80l-0.9,2.4h-0.8L81.4,37.2z M80.2,41.7h3l-1.5-3.9L80.2,41.7z"/>
	<path class="eaz" d="M85.8,37.2h2.6c2.3,0.1,3.5,1.3,3.5,3.8s-1.2,3.7-3.5,3.8h-2.6V37.2z M86.6,44.1h1.6c2.2,0,3.1-0.9,3.1-3.2
		s-1-3.2-3.1-3.2h-1.6V44.1z"/>
	<path class="ecr" d="M96.2,37c2.4,0,3.6,1.9,3.6,3.9c0,2.1-1.2,3.9-3.6,3.9s-3.6-1.9-3.6-3.9C92.7,38.9,93.9,37,96.2,37z
		 M96.2,44.2c2,0,2.9-1.7,2.9-3.3s-0.9-3.3-2.9-3.3s-2.9,1.7-2.9,3.3C93.4,42.6,94.2,44.2,96.2,44.2z"/>
	<path class="ecr" d="M100.9,37.2h3.5c1.3,0,2.3,0.6,2.3,2c0,1-0.5,1.8-1.5,1.9l0,0c1,0.2,1.3,0.8,1.3,1.7c0.1,0.5,0.1,1.6,0.4,2
		h-0.8c-0.2-0.3-0.2-0.9-0.2-1.2c-0.1-1.1-0.2-2.3-1.5-2.2h-2.7v3.4H101L100.9,37.2L100.9,37.2z M101.7,40.7h2.7
		c0.9,0,1.6-0.6,1.6-1.5s-0.6-1.5-1.6-1.5h-2.7V40.7z"/>
</g>
<g>
	<path class="st0" d="M51.6,6.3v38.5c0,0.1,0.1,0.2,0.2,0.2c0.1,0,0.2-0.1,0.2-0.2V6.3c0-0.1-0.1-0.2-0.2-0.2
		C51.6,6.1,51.6,6.2,51.6,6.3z"/>
</g>
<path class="st0" d="M89.6,13.5c-0.7-0.2-2.7-1.2-3.5-1.2c-0.8,0.1-3.5-0.2-4-0.2s-1.6,0.7-2.2,0.7c-0.6,0.1-1.8,0.5-2.3,0.6
	s-1.2,1-1.8,1.3c-0.6,0.3-1.6,0.5-1.6,0.5s-0.8-1.1-1-1.5s-1.1-2.6-1.2-3.5c-0.2-0.8-0.4-2-0.7-2.4c-0.4-0.3-1.1-0.9-1.4-1.1
	s-0.8-0.6-1.1-0.6c-0.4,0-0.7,0.3-0.9,0.4c-0.2,0.1-0.2,0.2-0.2,0.2S68.2,7,68.3,7c0.1,0.1,0.3,0.2,0.4,0.4c0.1,0.2,0.1,0.4,0.1,0.4
	s-0.7-0.4-0.7-0.5C68,7.2,67.9,7,67.9,7s-0.2,0.3-0.2,0.5S68,8.7,68.1,9s0.6,0.9,0.8,1.2c0.2,0.3,1.2,1.4,1.4,2.1
	c0.2,0.7,1,3.3,1.4,4.1c0.5,0.8,0.8,1.6,1.3,1.9s1.3,0.5,1.4,0.8s0.8,1,1.1,1.3c0.3,0.4,0.6,0.8,0.6,0.9c0.1,0.2,0.1,0.4-0.2,0.6
	c-0.3,0.2-0.7,0.4-0.9,0.6c-0.2,0.2,0.1,0.5,0.1,0.5s-0.3,0.2-0.7,0.5c-0.4,0.3-0.9,0.8-1.3,1.1c-0.3,0.3-1,1.3-1.2,1.8
	c-0.3,0.5-0.5,1.3-0.7,2s-0.1,1-0.2,1.2s-0.3,0.5-0.4,0.7c-0.2,0.2-0.4,0.6-0.5,0.7c-0.1,0.2-0.1,0.3,0.1,0.4s0.7,0.1,1,0.2
	c0.4,0,0.4,0.2,1,0.1s0.7-0.1,1-0.2c0.3-0.2,0.6-0.8,0.7-1.2c0.2-0.4,0.7-1.9,1-2.3s1.1-1.5,1.5-1.9c0.5-0.3,1.1-0.7,1.4-0.7
	s0.6-0.1,0.7,0s0.8,0.6,1.1,0.9c0.3,0.3,0.9,1.1,1.1,1.5s0.2,0.8,0.3,0.8c0.1-0.1,0.2,0.1,0.1,0.4s-0.1,0.7-0.2,1.1
	c0,0.5,0.1,0.7,0.2,0.7s0.7-0.1,0.7-0.1c0.1-0.1,0.1-0.1,0.3-0.2c0.2-0.2,0.3-0.2,0.4-0.3c0.2-0.1,0.4-0.4,0.5-0.6
	c0.1-0.3,0.3-0.6,0.4-0.9s0.1-0.7,0-1s-0.5-1-0.5-1s1.8,0.2,2.3,0.2c0.5-0.1,1.6-0.1,2.2-0.3c0.5-0.2,1.1-0.3,1.5-0.3
	c0.5,0,1.6,0.1,1.6,0.1s-0.1,0.5-0.1,0.7c0.1,0.3,0.3,0.5,0.4,0.7c0,0.2,0.1,0.6,0.2,0.7c0.2,0.2,0.4,0.3,0.4,0.6
	c0,0.4,0.3,0.9,0.3,1.2c-0.1,0.4-0.1,0.4-0.1,0.8c-0.1,0.5-0.2,0.8-0.1,1c0.1,0.2,0.1,0.4,0.2,0.5c0.2,0.1,0.5,0.1,1,0.1
	c0.6,0,0.6,0.1,1.3,0c0.7,0,1.1-0.1,1.3-0.2c0.2-0.2,0.4-0.2,0.3-0.6s-0.4-0.7-0.5-1.1s-0.3-1-0.5-1.3s-0.4-1-0.4-1.4
	c-0.1-0.5,0.1-1.1,0.1-1.1s0.3,0,0.7,0.4c0.3,0.4,0.8,0.8,0.8,1c0.1,0.3,0.4,1,0.4,1.3c-0.1,0.3,0.1,0.7,0.1,0.9
	c0,0.2,0.1,0.4,0.1,0.7c0.1,0.4,0.1,0.7,0.1,0.9c0,0.3-0.2,0.6,0.1,0.7c0.3,0.1,0.4,0.4,0.8,0.4s0.5,0,1,0c0.5-0.1,0.4-0.1,0.7-0.1
	c0.4,0,0.4,0.2,0.6,0s0.2-0.4,0.4-0.5c0.2-0.2,0.3-0.7,0.2-1.1c-0.2-0.4-0.7-1.3-0.9-1.7c-0.2-0.4-0.9-1.2-1-1.7
	c-0.1-0.6,0.1-1.4-0.2-2C98,25.6,98,25,98,25s0.2-0.4,0.4-0.5c0.2-0.1,1.1-0.4,1.2-0.8c0.2-0.5-0.1-1.5-0.1-1.5s0.2-0.3,0.1-0.4
	c0-0.2,0.1-0.3-0.1-0.5s-0.8-0.4-1.2-0.7c-0.4-0.3-1.4-0.5-1.8-0.8c-0.4-0.4-1.3-2.6-2.3-3.3c-1-0.7-2-1.8-2.5-2.1
	C90.7,13.8,90.1,13.6,89.6,13.5z"/>
<g>
	<path class="gre" d="M8.9,27.3H6.4V3.5h2.7V12c0.6-0.8,1.2-1.4,2-1.8c0.7-0.4,1.6-0.6,2.4-0.6c1.3,0,2.4,0.4,3.4,1
		c1,0.7,1.8,1.7,2.5,3c0.6,1.4,0.9,3,0.9,4.9c0,2.9-0.7,5.2-2.1,6.8c-1.4,1.6-3,2.4-4.8,2.4c-0.9,0-1.8-0.2-2.5-0.7
		c-0.8-0.5-1.4-1.1-1.9-1.9L8.9,27.3L8.9,27.3z M8.8,18.6c0,1.8,0.2,3.1,0.6,4c0.4,0.9,0.9,1.6,1.6,2c0.7,0.5,1.4,0.7,2.3,0.7
		c1.1,0,2.1-0.6,3-1.7s1.3-2.8,1.3-5c0-2.3-0.4-3.9-1.3-5S14.4,12,13.2,12c-1.1,0-2.1,0.6-3,1.7C9.3,14.8,8.8,16.4,8.8,18.6z"/>
	<path class="gre" d="M23.5,6.9V3.5h2.7v3.4H23.5z M23.5,27.3V10.1h2.7v17.3C26.2,27.3,23.5,27.3,23.5,27.3z"/>
	<path class="gre" d="M29.3,18.7c0-3,0.7-5.2,2.1-6.7s3.2-2.3,5.3-2.3c2.1,0,3.9,0.8,5.3,2.3s2.2,3.7,2.2,6.6c0,3.1-0.7,5.4-2.1,6.9
		s-3.2,2.3-5.4,2.3c-2.1,0-3.9-0.8-5.3-2.3C30,23.9,29.3,21.7,29.3,18.7z M32,18.7c0,2.3,0.5,3.9,1.4,5s2.1,1.7,3.4,1.7
		c1.3,0,2.4-0.6,3.3-1.7c0.9-1.1,1.4-2.8,1.4-5s-0.5-3.9-1.4-5S38,12,36.7,12c-1.3,0-2.4,0.6-3.3,1.7S32,16.5,32,18.7z"/>
</g>
<g>
	<g>
		<path class="st0" d="M34.5,29.8c0-0.2,0.2-0.3,0.3-0.3h3.7c0.7,0,4.6-0.2,4.6,3.6c0,1.7-0.7,2.8-2.2,3.2c1.9,0.4,2.7,1.5,2.7,3.5
			c0,2.7-1.7,4.2-4.6,4.2h-4.2c-0.2,0-0.3-0.2-0.3-0.3V29.8z M38.1,35.7c2.2,0,3.1-0.6,3.1-2.5c0-1.8-0.9-2.4-3.2-2.4h-1.2
			c-0.2,0-0.3,0.2-0.3,0.3v4.3c0,0.2,0.2,0.3,0.3,0.3H38.1z M38.5,42.5c2.2,0,3.1-0.8,3.1-2.7c0-2.1-1-2.9-3.4-2.9h-1.4
			c-0.2,0-0.3,0.2-0.3,0.3v5c0,0.2,0.2,0.3,0.3,0.3L38.5,42.5L38.5,42.5z"/>
		<g>
			<g>
				<path class="st0" d="M5.4,29.9c-0.1-0.2,0.1-0.3,0.2-0.3h1.5c0.2,0,0.3,0.1,0.4,0.3L10,40.8c0,0.2,0,0.2,0,0l2.1-10.9
					c0.1-0.2,0.2-0.3,0.4-0.3H14c0.2,0,0.3,0.1,0.4,0.3l2.4,10.9c0.1,0.2,0.1,0.2,0.1,0l2.4-10.9c0.1-0.2,0.2-0.3,0.4-0.3h1.4
					c0.2,0,0.3,0.1,0.2,0.3L18,43.6c-0.1,0.2-0.2,0.3-0.4,0.3H16c-0.2,0-0.3-0.1-0.4-0.3l-2.4-10.5c-0.1-0.2-0.1-0.2-0.1,0L11,43.6
					c-0.1,0.2-0.2,0.3-0.4,0.3H9.3c-0.2,0-0.3-0.1-0.4-0.3L5.4,29.9z"/>
			</g>
		</g>
		<path class="st0" d="M25.3,36.8H30h0.6c0.8,0,0.7-0.7,0.7-0.7v-0.6c0-4.1-1.4-6.1-4.2-6.1c-3.1,0-4.3,2.4-4.3,7.3
			c0,4.7,1.4,7,4.3,7c2.5,0,3.9-1.5,4.2-4.2v-0.1c0.1-0.7-0.8-0.7-0.8-0.7h-0.3c0,0-0.8-0.1-0.9,0.6v0.2c-0.2,1.7-1,2.7-2.2,2.7
			c-1.8,0-2.5-1.6-2.5-4.9c0-0.1,0-0.1,0-0.1C24.7,37.1,25,36.8,25.3,36.8z M24.8,34.7c0,0,0.1-3.6,2.3-3.5c1.5,0.1,2.1,1.1,2.2,3.5
			c0,0.1,0,0.7-0.6,0.7h-3.4C25,35.3,24.7,35,24.8,34.7z"/>
	</g>
</g>
</svg>
